<svg width="69" height="68" viewBox="0 0 69 68" fill="none" xmlns="http://www.w3.org/2000/svg">
<g clip-path="url(#clip0)">
<path d="M41.7464 2.00043H27.1194C23.3183 2.00043 20.226 5.05392 20.226 8.8072V10.019H24.2611V8.8072C24.2611 7.2509 25.5433 5.9848 27.1194 5.9848H41.7464C43.3225 5.9848 44.6047 7.2509 44.6047 8.8072V10.019H48.6398V8.8072C48.6398 5.05405 45.5474 2.00043 41.7464 2.00043V2.00043Z" fill="#4BBEC5"/>
<path d="M36.4672 36.0004V29.9907H32.3985V36.0004C32.3985 37.1006 31.4952 37.9926 30.381 37.9926H24.2947V42.0102H30.381C31.4952 42.0102 32.3985 42.9022 32.3985 44.0024V50.0122H36.4672V44.0024C36.4672 42.9022 37.3706 42.0102 38.4848 42.0102H44.5711V37.9926H38.4848C37.3706 37.9926 36.4672 37.1008 36.4672 36.0004Z" fill="#4BBEC5"/>
<path d="M0 24.1303V55.8728C0 60.7749 3.54618 64.8736 8.2382 65.8017V14.2013C3.54618 15.1294 0 19.2281 0 24.1303Z" fill="#4BBEC5"/>
<path d="M60.6275 14.2013V65.8017C65.3195 64.8736 68.8657 60.7749 68.8657 55.8726V24.1303C68.8657 19.2281 65.3195 15.1294 60.6275 14.2013V14.2013Z" fill="#4BBEC5"/>
<path d="M56.5924 14.0035H12.2733V65.9996H56.5924V14.0035ZM48.6061 44.0024C48.6061 45.1026 47.7028 45.9946 46.5886 45.9946H40.5023V52.0043C40.5023 53.1045 39.599 53.9965 38.4847 53.9965H30.3809C29.2667 53.9965 28.3634 53.1045 28.3634 52.0043V45.9946H22.2771C21.1629 45.9946 20.2595 45.1026 20.2595 44.0024V36.0004C20.2595 34.9002 21.1629 34.0082 22.2771 34.0082H28.3634V27.9985C28.3634 26.8982 29.2667 26.0063 30.3809 26.0063H38.4847C39.599 26.0063 40.5023 26.8982 40.5023 27.9985V34.0082H46.5886C47.7028 34.0082 48.6061 34.9002 48.6061 36.0004V44.0024Z" fill="#4BBEC5"/>
</g>
<defs>
<clipPath id="clip0">
<rect width="68.8657" height="68" fill="white"/>
</clipPath>
</defs>
</svg>
