<svg width="40" height="40" viewBox="0 0 40 40" fill="none" xmlns="http://www.w3.org/2000/svg">
<g clip-path="url(#clip0)">
<path d="M38.921 17.3981C38.9201 17.3972 38.9192 17.3962 38.9182 17.3953L22.6014 1.0791C21.9059 0.383301 20.9812 0 19.9977 0C19.0141 0 18.0894 0.382996 17.3936 1.0788L1.08531 17.3868C1.07981 17.3923 1.07432 17.3981 1.06883 17.4036C-0.359395 18.84 -0.356954 21.1707 1.07585 22.6035C1.73045 23.2584 2.59501 23.6377 3.51939 23.6774C3.55693 23.681 3.59477 23.6829 3.63291 23.6829H4.28324V35.6906C4.28324 38.0667 6.21653 40 8.59324 40H14.9769C15.6239 40 16.1488 39.4754 16.1488 38.8281V29.4141C16.1488 28.3298 17.0307 27.4478 18.115 27.4478H21.8803C22.9646 27.4478 23.8465 28.3298 23.8465 29.4141V38.8281C23.8465 39.4754 24.3711 40 25.0184 40H31.4021C33.7788 40 35.7121 38.0667 35.7121 35.6906V23.6829H36.3151C37.2984 23.6829 38.2231 23.2999 38.9192 22.6041C40.3535 21.1688 40.3541 18.8342 38.921 17.3981V17.3981Z" fill="white"/>
</g>
<defs>
<clipPath id="clip0">
<rect width="40" height="40" fill="white"/>
</clipPath>
</defs>
</svg>
