<svg width="40" height="40" viewBox="0 0 40 40" fill="none" xmlns="http://www.w3.org/2000/svg">
<g clip-path="url(#clip0)">
<path d="M39.8728 17.6963C39.7878 17.493 39.6661 17.308 39.5111 17.153L34.5128 12.1546C33.8611 11.5046 32.8078 11.5046 32.1561 12.1546C31.5045 12.8063 31.5045 13.8613 32.1561 14.5113L34.3111 16.6663H25.0011C24.0794 16.6663 23.3344 17.4129 23.3344 18.3329C23.3344 19.2529 24.0794 19.9995 25.0011 19.9995H34.311L32.156 22.1545C31.5044 22.8062 31.5044 23.8612 32.156 24.5112C32.481 24.8378 32.9077 24.9995 33.3344 24.9995C33.7611 24.9995 34.1878 24.8379 34.5128 24.5112L39.5111 19.5128C39.6661 19.3595 39.7878 19.1745 39.8728 18.9695C40.041 18.563 40.041 18.103 39.8728 17.6963Z" fill="#E2E2E2"/>
<path d="M28.3344 23.3334C27.4127 23.3334 26.6677 24.08 26.6677 25V33.3334H20.0011V6.66664C20.0011 5.93164 19.5177 5.28164 18.8127 5.07L13.0244 3.33336H26.6677V11.6667C26.6677 12.5867 27.4127 13.3334 28.3344 13.3334C29.256 13.3334 30.001 12.5867 30.001 11.6667V1.66672C30.001 0.746641 29.256 0 28.3344 0H1.66774C1.60774 0 1.55438 0.025 1.4961 0.0316406C1.41774 0.04 1.3461 0.0532812 1.2711 0.0716406C1.0961 0.116641 0.937739 0.185 0.789458 0.278281C0.752817 0.301641 0.707817 0.303281 0.672817 0.329922C0.65938 0.34 0.65438 0.358359 0.64102 0.368359C0.45938 0.511641 0.307739 0.686641 0.197739 0.895C0.17438 0.94 0.16938 0.988359 0.151099 1.035C0.0977392 1.16164 0.039458 1.285 0.019458 1.425C0.0110986 1.475 0.0260986 1.52164 0.024458 1.57C0.0228174 1.60336 0.00109863 1.63336 0.00109863 1.66664V35C0.00109863 35.795 0.562739 36.4784 1.3411 36.6334L18.0077 39.9667C18.1161 39.9901 18.2261 40.0001 18.3344 40.0001C18.716 40.0001 19.091 39.8684 19.391 39.6217C19.776 39.3051 20.001 38.8334 20.001 38.3334V36.6667H28.3344C29.256 36.6667 30.001 35.9201 30.001 35.0001V25C30.001 24.08 29.256 23.3334 28.3344 23.3334Z" fill="#E2E2E2"/>
</g>
<defs>
<clipPath id="clip0">
<rect width="40" height="40" fill="white"/>
</clipPath>
</defs>
</svg>
