<svg width="45" height="45" viewBox="0 0 45 45" fill="none" xmlns="http://www.w3.org/2000/svg">
<g clip-path="url(#clip0)">
<path d="M35.2861 9.32572C32.7845 6.64541 28.7902 4.91036 24.2896 4.91036C16.7129 4.91036 10.5708 9.82784 10.5708 15.8939C10.5708 16.6888 10.6772 17.4639 10.8776 18.2108C13.6972 16.4466 17.1303 15.4876 20.7105 15.4876C24.9713 15.4876 29.0013 16.8354 32.0579 19.2827C33.2906 20.2696 34.3156 21.3951 35.1171 22.6381C36.8243 20.8833 37.8811 18.7029 37.9966 16.329L45 9.32572H35.2861Z" fill="white"/>
<path d="M20.7105 18.1226C13.316 18.1226 7.28886 22.8067 7.0033 28.671L0 35.6743H9.71394C12.2155 38.3546 16.2098 40.0896 20.7105 40.0896C28.2872 40.0896 34.4292 35.1722 34.4292 29.1061C34.4292 23.0401 28.2872 18.1226 20.7105 18.1226ZM16.7579 30.4237H14.1229V27.7886H16.7579V30.4237ZM22.0279 30.4237H19.3929V27.7886H22.0279V30.4237ZM27.298 30.4237H24.663V27.7886H27.298V30.4237Z" fill="white"/>
</g>
<defs>
<clipPath id="clip0">
<rect width="45" height="45" fill="white"/>
</clipPath>
</defs>
</svg>
