<svg width="45" height="45" viewBox="0 0 45 45" fill="none" xmlns="http://www.w3.org/2000/svg">
<g clip-path="url(#clip0)">
<path d="M42.6015 18.2286L6.81233 0.910317C4.45488 -0.232274 1.61763 0.752543 0.474944 3.10999C-0.107701 4.31206 -0.156432 5.70405 0.340701 6.94401L5.93164 20.9165H45C44.5887 19.7378 43.7259 18.7709 42.6015 18.2286Z" fill="black"/>
<path d="M5.93157 24.0788L0.340628 38.0545C-0.629551 40.4945 0.561957 43.259 3.00195 44.2293C3.55439 44.4489 4.14324 44.5631 4.73775 44.5657C5.45612 44.5657 6.16522 44.4035 6.81216 44.0913L42.6013 26.7667C43.7257 26.2244 44.5886 25.2574 44.9999 24.0788H5.93157Z" fill="black"/>
</g>
<defs>
<clipPath id="clip0">
<rect width="45" height="45" fill="white"/>
</clipPath>
</defs>
</svg>
