<svg width="40" height="40" viewBox="0 0 40 40" fill="none" xmlns="http://www.w3.org/2000/svg">
<g clip-path="url(#clip0)">
<path d="M20 22.3438C21.2944 22.3438 22.3438 21.2944 22.3438 20C22.3438 18.7056 21.2944 17.6562 20 17.6562C18.7056 17.6562 17.6562 18.7056 17.6562 20C17.6562 21.2944 18.7056 22.3438 20 22.3438Z" fill="white"/>
<path d="M20 30.625C25.8586 30.625 30.625 25.8586 30.625 20C30.625 14.1414 25.8586 9.375 20 9.375C14.1414 9.375 9.375 14.1414 9.375 20C9.375 25.8586 14.1414 30.625 20 30.625ZM20 15.3125C22.5847 15.3125 24.6875 17.4153 24.6875 20C24.6875 22.5847 22.5847 24.6875 20 24.6875C17.4153 24.6875 15.3125 22.5847 15.3125 20C15.3125 17.4153 17.4153 15.3125 20 15.3125Z" fill="white"/>
<path d="M37.6562 20C37.6562 19.6173 37.6436 19.2305 37.6185 18.8445L39.7678 16.8775L39.6436 16.2336C39.4864 15.4192 39.277 14.6071 39.0212 13.8198C38.7655 13.0326 38.4574 12.2524 38.1058 11.5009L37.8278 10.907L34.934 10.5791C34.5226 9.92852 34.0674 9.30297 33.5742 8.71031L34.157 5.85461L33.6782 5.4068C33.0727 4.84055 32.4259 4.30656 31.7558 3.81977C31.0859 3.33305 30.3781 2.88281 29.6522 2.48172L29.0782 2.16461L26.5468 3.59898C25.8299 3.31273 25.0927 3.07336 24.3441 2.88383L23.1389 0.234687L22.4881 0.153984C21.6648 0.0517969 20.8277 0 20 0C19.1723 0 18.3351 0.0517969 17.5119 0.153984L16.8611 0.234687L15.6559 2.88383C14.9073 3.07344 14.1701 3.31273 13.4532 3.59898L10.9218 2.16461L10.3478 2.48172C9.62187 2.88281 8.91405 3.33297 8.24429 3.81969C7.57413 4.30656 6.92733 4.84055 6.32179 5.4068L5.84296 5.85461L6.42577 8.71031C5.93241 9.30312 5.47726 9.92852 5.06601 10.5791L2.17218 10.907L1.89421 11.5009C1.54265 12.2521 1.23468 13.0323 0.978818 13.8197C0.722881 14.6073 0.513506 15.4195 0.356396 16.2338L0.232178 16.8775L2.38147 18.8445C2.3564 19.2305 2.34374 19.6173 2.34374 20C2.34374 20.3827 2.3564 20.7695 2.38147 21.1555L0.232256 23.1225L0.356475 23.7663C0.513584 24.5805 0.722881 25.3927 0.978897 26.1802C1.23468 26.9677 1.54272 27.7478 1.89429 28.4991L2.17226 29.093L5.06608 29.4209C5.47741 30.0715 5.93249 30.6969 6.42585 31.2897L5.84304 34.1454L6.32187 34.5932C6.92741 35.1595 7.57421 35.6934 8.24429 36.1802C8.91413 36.667 9.62194 37.1172 10.3479 37.5183L10.9219 37.8354L13.4533 36.401C14.1703 36.6873 14.9074 36.9266 15.6559 37.1162L16.8612 39.7652L17.5119 39.8459C18.3349 39.9482 19.1719 40 20 40C20.828 40 21.6651 39.9482 22.4882 39.8459L23.1389 39.7652L24.3441 37.1162C25.0927 36.9266 25.83 36.6873 26.5468 36.401L29.0782 37.8354L29.6522 37.5183C30.3781 37.1172 31.0859 36.667 31.7557 36.1803C32.4259 35.6934 33.0727 35.1595 33.6782 34.5932L34.157 34.1454L33.5742 31.2897C34.0674 30.697 34.5227 30.0715 34.934 29.4209L37.8278 29.093L38.1058 28.4991C38.4574 27.7477 38.7654 26.9675 39.0211 26.1803C39.2769 25.3929 39.4864 24.5807 39.6436 23.7664L39.7678 23.1226L37.6185 21.1555C37.6436 20.7695 37.6562 20.3827 37.6562 20V20ZM7.03124 20C7.03124 12.8491 12.8491 7.03125 20 7.03125C27.1509 7.03125 32.9687 12.8491 32.9687 20C32.9687 27.1509 27.1509 32.9688 20 32.9688C12.8491 32.9688 7.03124 27.1509 7.03124 20Z" fill="white"/>
</g>
<defs>
<clipPath id="clip0">
<rect width="40" height="40" fill="white"/>
</clipPath>
</defs>
</svg>
