<svg width="45" height="44" viewBox="0 0 45 44" fill="none" xmlns="http://www.w3.org/2000/svg">
<path d="M18.6886 25.7777C14.5345 21.5784 13.5965 17.3791 13.3849 15.6966C13.3258 15.2314 13.4841 14.7649 13.8134 14.4344L17.1751 11.0376C17.6696 10.538 17.7573 9.75944 17.3867 9.16021L12.0342 0.758532C11.6241 0.0949915 10.7821 -0.144487 10.0899 0.205551L1.49729 4.2964C0.937543 4.57502 0.60831 5.1762 0.671863 5.80363C1.12209 10.1274 2.9868 20.7561 13.3196 31.2021C23.6524 41.648 34.1653 43.5323 38.4447 43.9874C39.0654 44.0517 39.6601 43.7188 39.9358 43.153L43.9826 34.4669C44.3276 33.7687 44.0922 32.9198 43.4385 32.5045L35.1273 27.0953C34.5348 26.7202 33.7647 26.8083 33.2701 27.3077L29.9099 30.706C29.5829 31.0388 29.1214 31.1989 28.6612 31.1391C26.9969 30.9252 22.8427 29.977 18.6886 25.7777V25.7777Z" fill="#4BBEC5"/>
<path d="M35.1846 23.515C34.3558 23.515 33.6839 22.8357 33.6839 21.9979C33.6768 15.7168 28.6415 10.6267 22.428 10.6196C21.5992 10.6196 20.9272 9.94041 20.9272 9.10254C20.9272 8.26468 21.5992 7.58545 22.428 7.58545C30.2986 7.59423 36.6767 14.0417 36.6854 21.9979C36.6854 22.8357 36.0135 23.515 35.1846 23.515Z" fill="#4BBEC5"/>
<path d="M42.6885 23.515C41.8597 23.515 41.1877 22.8358 41.1877 21.9979C41.1762 11.5294 32.7839 3.0459 22.428 3.03419C21.5992 3.03419 20.9272 2.35496 20.9272 1.5171C20.9272 0.679227 21.5992 0 22.428 0C34.441 0.0133776 44.1761 9.85433 44.1893 21.9979C44.1893 22.4002 44.0312 22.7861 43.7497 23.0706C43.4683 23.3551 43.0865 23.515 42.6885 23.515Z" fill="#4BBEC5"/>
</svg>
