<svg width="37" height="37" viewBox="0 0 37 37" fill="none" xmlns="http://www.w3.org/2000/svg">
<path d="M33.6964 8.58928H27.0892V15.1965H33.6964V8.58928Z" fill="white"/>
<path d="M21.8035 8.58928H15.1964V15.1965H21.8035V8.58928Z" fill="white"/>
<path d="M6.60712 30.5957L10.5714 32.0823V28.7034L6.60712 30.19V30.5957Z" fill="white"/>
<path d="M27.75 28.4107H11.8929V32.375H27.75V28.4107Z" fill="white"/>
<path d="M9.91082 8.58928H3.30365V15.1965H9.91082V8.58928Z" fill="white"/>
<path d="M31.7142 28.4107H29.0714V32.375H31.7142C32.8089 32.375 33.6964 31.4876 33.6964 30.3928C33.6964 29.2981 32.809 28.4107 31.7142 28.4107Z" fill="white"/>
<path d="M0 35.0178C0 36.1126 0.887422 37 1.98217 37H35.0179C36.1126 37 37 36.1126 37 35.0178V5.28572H0V35.0178ZM31.7143 33.6964H11.2322C11.1528 33.6962 11.0741 33.6821 10.9996 33.6548L5.7139 31.6726C5.45613 31.5757 5.28551 31.3289 5.28572 31.0535V29.7321C5.28544 29.4567 5.45605 29.21 5.7139 29.113L10.9996 27.1308C11.0373 27.1214 11.0758 27.1154 11.1146 27.113C11.153 27.1014 11.1924 27.0934 11.2322 27.0892H31.7143C33.5388 27.0892 35.0179 28.5683 35.0179 30.3927C35.0179 32.2172 33.5388 33.6964 31.7143 33.6964ZM3.30355 20.4822H9.91072C10.2756 20.4822 10.5714 20.7779 10.5714 21.1429C10.5714 21.5078 10.2757 21.8036 9.91072 21.8036H3.30355C2.93868 21.8036 2.64283 21.5078 2.64283 21.1429C2.64283 20.7779 2.93868 20.4822 3.30355 20.4822ZM2.64283 18.5C2.64283 18.1351 2.93861 17.8393 3.30355 17.8393H9.91072C10.2756 17.8393 10.5714 18.1351 10.5714 18.5C10.5714 18.8649 10.2757 19.1607 9.91072 19.1607H3.30355C2.93868 19.1607 2.64283 18.8649 2.64283 18.5ZM3.30355 23.125H9.91072C10.2756 23.125 10.5714 23.4208 10.5714 23.7857C10.5714 24.1507 10.2757 24.4464 9.91072 24.4464H3.30355C2.93868 24.4464 2.64283 24.1507 2.64283 23.7857C2.64283 23.4208 2.93868 23.125 3.30355 23.125ZM15.1964 20.4822H21.8036C22.1685 20.4822 22.4643 20.7779 22.4643 21.1429C22.4643 21.5078 22.1686 21.8036 21.8036 21.8036H15.1964C14.8316 21.8036 14.5357 21.5078 14.5357 21.1429C14.5357 20.7779 14.8315 20.4822 15.1964 20.4822ZM14.5357 18.5C14.5357 18.1351 14.8315 17.8393 15.1964 17.8393H21.8036C22.1685 17.8393 22.4643 18.1351 22.4643 18.5C22.4643 18.8649 22.1686 19.1607 21.8036 19.1607H15.1964C14.8315 19.1607 14.5357 18.8649 14.5357 18.5ZM15.1964 23.125H21.8036C22.1685 23.125 22.4643 23.4208 22.4643 23.7857C22.4643 24.1507 22.1686 24.4464 21.8036 24.4464H15.1964C14.8316 24.4464 14.5357 24.1507 14.5357 23.7857C14.5357 23.4208 14.8315 23.125 15.1964 23.125ZM27.0893 20.4822H33.6964C34.0613 20.4822 34.3572 20.7779 34.3572 21.1429C34.3572 21.5078 34.0614 21.8036 33.6964 21.8036H27.0893C26.7244 21.8036 26.4286 21.5078 26.4286 21.1429C26.4286 20.7779 26.7244 20.4822 27.0893 20.4822ZM26.4286 18.5C26.4286 18.1351 26.7243 17.8393 27.0893 17.8393H33.6964C34.0613 17.8393 34.3572 18.1351 34.3572 18.5C34.3572 18.8649 34.0614 19.1607 33.6964 19.1607H27.0893C26.7244 19.1607 26.4286 18.8649 26.4286 18.5ZM27.0893 23.125H33.6964C34.0613 23.125 34.3572 23.4208 34.3572 23.7857C34.3572 24.1507 34.0614 24.4464 33.6964 24.4464H27.0893C26.7244 24.4464 26.4286 24.1507 26.4286 23.7857C26.4286 23.4208 26.7244 23.125 27.0893 23.125ZM25.7678 8.54042C25.7685 7.83793 26.3379 7.26862 27.0404 7.26789H33.7453C34.4478 7.26862 35.0171 7.83793 35.0178 8.54042V15.2454C35.0171 15.9479 34.4478 16.5172 33.7453 16.5179H27.0404C26.3379 16.5172 25.7685 15.9479 25.7678 15.2454V8.54042ZM13.875 8.54042C13.8757 7.83793 14.445 7.26862 15.1475 7.26789H21.8525C22.555 7.26862 23.1243 7.83793 23.125 8.54042V15.2454C23.1243 15.9479 22.555 16.5172 21.8525 16.5179H15.1475C14.445 16.5172 13.8757 15.9479 13.875 15.2454V8.54042V8.54042ZM1.98217 8.54042C1.9829 7.83793 2.5522 7.26862 3.2547 7.26789H9.95965C10.6621 7.26862 11.2315 7.83793 11.2322 8.54042V15.2454C11.2315 15.9479 10.6621 16.5172 9.95965 16.5179H3.2547C2.5522 16.5172 1.9829 15.9479 1.98217 15.2454V8.54042V8.54042ZM2.64283 29.7322H3.96428C4.32914 29.7322 4.625 30.0279 4.625 30.3929C4.625 30.7578 4.32922 31.0536 3.96428 31.0536H2.64283C2.27796 31.0536 1.9821 30.7578 1.9821 30.3929C1.98217 30.0279 2.27796 29.7322 2.64283 29.7322Z" fill="white"/>
<path d="M35.0178 0H1.98217C0.887422 0 0 0.887422 0 1.98217V3.96435H37V1.98217C37 0.887422 36.1126 0 35.0178 0ZM3.30355 2.64283H2.64283C2.27796 2.64283 1.9821 2.34704 1.9821 1.9821C1.9821 1.61723 2.27788 1.32138 2.64283 1.32138H3.30355C3.66842 1.32138 3.96428 1.61716 3.96428 1.9821C3.96428 2.34704 3.66849 2.64283 3.30355 2.64283ZM6.55428 2.23322C6.52233 2.31409 6.47522 2.38809 6.41553 2.45125C6.38402 2.47951 6.35092 2.50595 6.31645 2.53053C6.27959 2.55546 6.23956 2.5754 6.1975 2.59C6.1579 2.61009 6.11526 2.62346 6.07132 2.62967C6.03013 2.63741 5.98836 2.64181 5.94645 2.6429C5.7707 2.6447 5.6016 2.57562 5.4773 2.45132C5.353 2.32703 5.28399 2.15792 5.28572 1.98217C5.28796 1.80722 5.3564 1.63956 5.4773 1.5131C5.63549 1.36177 5.85662 1.29551 6.07197 1.33467C6.11591 1.34082 6.15855 1.35426 6.19815 1.37435C6.24021 1.38895 6.28017 1.40889 6.3171 1.43382C6.35157 1.45839 6.38467 1.48484 6.41618 1.5131C6.53657 1.63992 6.60472 1.80736 6.6071 1.98217C6.60609 2.06846 6.58817 2.1538 6.55428 2.23322ZM9.05842 2.45125C8.93246 2.57295 8.76445 2.64153 8.58935 2.64283C8.50299 2.64181 8.41772 2.62382 8.3383 2.59C8.25743 2.55806 8.18343 2.51094 8.12027 2.45125C7.86474 2.19073 7.86474 1.77354 8.12027 1.51303C8.18343 1.45333 8.25743 1.40622 8.3383 1.37428C8.58436 1.27079 8.86851 1.32557 9.0585 1.51303C9.31395 1.77354 9.31396 2.19073 9.05842 2.45125ZM34.3572 2.64283H11.8928C11.528 2.64283 11.2321 2.34704 11.2321 1.9821C11.2321 1.61723 11.5279 1.32138 11.8928 1.32138H34.3571C34.722 1.32138 35.0178 1.61716 35.0178 1.9821C35.0178 2.34704 34.722 2.64283 34.3572 2.64283Z" fill="white"/>
</svg>
